<svg xmlns="http://www.w3.org/2000/svg" viewBox="0 0 549.11 153.1"><defs><style>.cls-1{fill:#200081;}</style></defs><g id="Layer_2" data-name="Layer 2"><g id="Layer_1-2" data-name="Layer 1"><path class="cls-1" d="M414.32,19.33a8.16,8.16,0,1,0,8.15,8.16A8.17,8.17,0,0,0,414.32,19.33Z"/><circle class="cls-1" cx="55.37" cy="48.17" r="8.57"/><path class="cls-1" d="M263.57,43.75a28.05,28.05,0,1,0,22,45.48A5.48,5.48,0,1,0,277,82.41a17,17,0,0,1-13.4,6.48,17.2,17.2,0,0,1-16-11l-.22-.57h38.77a5.49,5.49,0,0,0,5.48-5.48A28.08,28.08,0,0,0,263.57,43.75Zm-16.2,22.57.22-.57a17.09,17.09,0,0,1,32,0l.22.57Z"/><path class="cls-1" d="M375.24,99.77a25.58,25.58,0,0,0,3,.18c8,0,15.56-3.7,19.74-9.65,3.26-4.65,3.85-10.1,1.58-14.58S391.52,66,376.37,65.61h0c-8-.54-11.39-1.9-11.6-4.72a4.34,4.34,0,0,1,1.44-3.59c2.62-2.5,7.94-3.13,11.77-2.66,5.43.67,10,2.91,12.8,6.32a5.48,5.48,0,1,0,8.45-7c-4.62-5.58-11.69-9.21-19.91-10.21-8.89-1.09-18,2.52-22.68,9-3.15,4.35-3.79,9.32-1.76,13.64,1.95,4.15,7.16,9.28,20.9,10.17H376c9.68.21,13.62,2.05,13.62,6.37a4,4,0,0,1-1.56,2.94c-2.49,2.21-7.43,3.5-11.48,3-5.44-.66-10-2.91-12.8-6.32a5.46,5.46,0,0,0-3.71-2,4.71,4.71,0,0,0-.53,0,5.49,5.49,0,0,0-4.21,9C360,95.13,367,98.76,375.24,99.77Z"/><path class="cls-1" d="M199.14,43.75a28.08,28.08,0,0,0-28,28.05v46.69a5.49,5.49,0,1,0,11,0V94l.67.48a27.76,27.76,0,0,0,16.41,5.33,28.05,28.05,0,1,0,0-56.1Zm0,45.14A17.09,17.09,0,1,1,216.23,71.8,17.11,17.11,0,0,1,199.14,88.89Z"/><path class="cls-1" d="M549.11,94.37V71.8A28.09,28.09,0,1,0,537.5,94.51l.61-.45.08,1v.06a6,6,0,0,0-.06.74A17.09,17.09,0,0,1,506,104a5.43,5.43,0,0,0-3.25-2.65,5.35,5.35,0,0,0-1.58-.23,5.48,5.48,0,0,0-4.81,8.09,28.05,28.05,0,0,0,52.74-13.32c0-.21,0-.42,0-.62v-.11A6,6,0,0,0,549.11,94.37Zm-28.05-5.48A17.09,17.09,0,1,1,538.14,71.8,17.11,17.11,0,0,1,521.06,88.89Z"/><path class="cls-1" d="M323.88,43.75C310.68,43.75,300,56.33,300,71.8V94.37a5.48,5.48,0,0,0,11,0V71.8c0-9.42,5.82-17.09,13-17.09,5.06,0,9.7,4,11.82,10.1a5.48,5.48,0,1,0,10.36-3.59C342.39,50.61,333.69,43.75,323.88,43.75Z"/><path class="cls-1" d="M480.2,99.85a5.49,5.49,0,0,0,5.48-5.48V71.8a28,28,0,1,0-56.1,0V94.37a5.48,5.48,0,0,0,11,0V71.8a17.09,17.09,0,0,1,34.18,0V94.37A5.49,5.49,0,0,0,480.2,99.85Z"/><path class="cls-1" d="M414.77,44.44a5.49,5.49,0,0,0-5.48,5.48V95.06a5.48,5.48,0,0,0,11,0V49.92A5.49,5.49,0,0,0,414.77,44.44Z"/><path class="cls-1" d="M76.55,0A76.55,76.55,0,1,0,153.1,76.55,76.64,76.64,0,0,0,76.55,0Zm0,142A65.44,65.44,0,1,1,142,76.55,65.51,65.51,0,0,1,76.55,142Z"/><path class="cls-1" d="M85,42.58a4.72,4.72,0,0,0-6.67,6.67L97.43,68.33,78.35,87.4A4.72,4.72,0,0,0,85,94.07l22.41-22.41a4.72,4.72,0,0,0,0-6.67Z"/><path class="cls-1" d="M98.46,99.93a4.67,4.67,0,0,0-5.5,3.63,10.61,10.61,0,0,1-20.56.94,4.68,4.68,0,0,0-5.82-3.11,4.66,4.66,0,0,0-3.11,5.81A19.94,19.94,0,0,0,78.57,121a20.34,20.34,0,0,0,4,.41,20,20,0,0,0,19.49-15.95A4.66,4.66,0,0,0,98.46,99.93Z"/></g></g></svg>